<?xml version="1.0" encoding="UTF-8"?>
<svg width="54px" height="54px" viewBox="0 0 54 54" version="1.1" xmlns="http://www.w3.org/2000/svg" xmlns:xlink="http://www.w3.org/1999/xlink">
    <!-- Generator: Sketch 59.1 (86144) - https://sketch.com -->
    <title>Logo</title>
    <desc>Created with Sketch.</desc>
    <g id="Logo" stroke="none" stroke-width="1" fill="none" fill-rule="evenodd">
        <path d="M27.139751,1 C41.5739516,1 53.2793521,12.7054005 53.2793521,27.139601 C53.2793521,41.5738016 41.5739516,53.2790521 27.139751,53.2790521 C12.7060005,53.2790521 1,41.5738016 1,27.139601 C1,12.7054005 12.7060005,1 27.139751,1" id="Fill-1" fill="#ED1C24"></path>
        <path d="M27.139742,3.63952604 C14.1633484,3.63952604 3.63967604,14.1630502 3.63967604,27.139592 C3.63967604,40.1161096 14.1633241,50.639526 27.139742,50.639526 C40.1163962,50.639526 50.639676,40.1162693 50.639676,27.139592 C50.639676,14.1628905 40.116372,3.63952604 27.139742,3.63952604 Z M27.139742,4.63952604 C39.5640859,4.63952604 49.639676,14.715174 49.639676,27.139592 C49.639676,39.563984 39.564112,49.639526 27.139742,49.639526 C14.7156039,49.639526 4.63967604,39.5638199 4.63967604,27.139592 C4.63967604,14.7153381 14.71563,4.63952604 27.139742,4.63952604 Z" id="Fill-1" fill="#262626" fill-rule="nonzero"></path>
        <path d="M16.5629056,12.5582355 C18.3960701,11.8744114 21.7788663,15.2212912 24.9034891,18.4748676 L26.814956,20.4677358 L28.3854561,20.8260858 C28.0613211,21.2001708 27.9601386,21.5446098 28.0815805,21.8598402 L28.1303061,21.9638358 L30.4391062,21.8534358 C30.262212,22.3537653 29.4889885,22.8540947 29.8036894,23.3542991 L29.8758561,23.4480859 L30.7968562,23.0906359 L30.2055562,24.8910859 C30.6731705,24.6321431 31.0395072,24.2314778 31.4348276,23.8713046 L31.6355062,23.6954359 L31.6037062,24.1659859 L33.0386063,23.9450359 L32.3765062,25.214636 L33.1493063,25.214636 C32.8717533,25.9935066 32.0591249,27.0281558 32.2233478,27.5966353 L32.2659562,27.6975861 L34.8594563,26.373536 L34.6940063,27.090836 L36.2393064,26.538986 L34.4181563,30.4019362 L35.9085564,29.4083361 L35.9634564,30.3464362 L37.6743565,29.5736361 L37.1219064,31.0092862 L39.9369565,30.1809862 C39.0903565,31.5792862 37.3074564,32.7291863 37.3985064,34.3752863 C38.8142065,35.0958342 39.7766026,34.0001468 40.9358904,33.6941269 L41.0952566,33.6575363 L40.3782566,35.7546864 L44.2410567,34.3752863 L43.3584567,36.8588364 L46.7802568,37.1903364 L43.8548067,39.4521865 L44.5725567,39.8940865 C43.8685089,40.8439127 42.4082682,41.2900677 42.3621731,42.6785251 L42.3648566,42.8738367 L45.6210568,41.8253366 L45.4002568,42.8738367 L48.4090376,42.3363833 C43.6666967,48.9611192 35.9065354,53.2790521 27.139751,53.2790521 C24.2515129,53.2790521 21.4724973,52.8103592 18.8746413,51.9448951 L18.1382057,48.0734369 C15.4362556,44.0708367 15.2292556,40.3098866 17.0895556,36.7482864 C18.1278557,31.6928362 16.7135056,27.4550361 13.7784555,23.7240859 C13.2170055,21.8441358 11.9480054,21.2277858 10.3569554,21.1854858 C9.54406122,20.5099564 9.80490552,19.3462553 9.62368475,18.3838162 L9.58415534,18.2058857 L12.4539555,19.0884857 C12.8986028,18.4708962 12.6508685,17.8534413 11.7102422,17.235866 L11.5470554,17.1329356 L14.3303055,18.0978857 C15.7449556,17.6291357 15.7266556,16.5359356 14.2754055,14.8176855 C12.9020055,13.8101355 12.8379555,12.7578855 13.6692555,11.6763854 C14.5554555,10.7211854 15.5295556,11.1617354 16.5629056,12.5582355 Z M18.7400057,14.7903255 C19.1532557,13.9632255 17.4167057,13.2474255 17.4167057,13.2474255 C17.2239556,12.9165255 18.3267557,15.6174256 18.7400057,14.7903255 Z" id="Shape" fill="#262626"></path>
        <path d="M36.4652364,16.9668106 C38.2511365,16.9668106 39.7080865,15.5098606 39.7080865,13.7241105 C39.7080865,11.9382104 38.2511365,10.4818604 36.4652364,10.4818604 C34.6793363,10.4818604 33.2231363,11.9382104 33.2231363,13.7241105 C33.2231363,15.5098606 34.6793363,16.9668106 36.4652364,16.9668106" id="Fill-13" fill="#FFF200"></path>
    </g>
</svg>